# xmcd
#
# Track frame offsets:
#	150
#	12113
#	26841
#	38428
#	53038
#	66003
#	77310
#	90688
#	103270
#	118731
#	132485
#	154789
#	167761
#	183660
#	202142
#	216548
#	229221
#	243769
#	258867
#	273630
#	290023
#	306751
#	326961
#
# Disc length: 4530 seconds
#
# Revision: 1
# Processed by: cddbd v1.5.2PL0 Copyright (c) Steve Scherf et al.
# Submitted via: EasyCDDAExtractor 6.0.0.1
#
DISCID=5211b017
DTITLE=Sidney Magal
DYEAR=1900
DGENRE=Brega
TTITLE0=Sandra Rosa Madalena
TTITLE1=Meu Sangue Ferve Por Voce
TTITLE2=Se Te Agarro Com Outro Te Mato
TTITLE3=Me Chama Que Eu Vou
TTITLE4=Amante Latino
TTITLE5=Tenho
TTITLE6=Voce Me Acende
TTITLE7=Alegria de Viver
TTITLE8=Que Saudade Me Da
TTITLE9=O Que Sera Sera
TTITLE10=Ave Maria
TTITLE11=Mae
TTITLE12=Bela Sem Alma
TTITLE13=Conhecer-Te
TTITLE14=Como Romeu e Julieta
TTITLE15=Quero Abracar-Me Aos Teus Pes
TTITLE16=Cartas De Amor
TTITLE17=Agora Sou Feliz
TTITLE18=O Amor Nao Tem Hora Pra Chegar
TTITLE19=Sei Que Vou Sobreviver
TTITLE20=Seu Artista Preferido
TTITLE21=Nao Ha Vida Sem Voce
TTITLE22=A Moca
EXTD=
EXTT0=
EXTT1=
EXTT2=
EXTT3=
EXTT4=
EXTT5=
EXTT6=
EXTT7=
EXTT8=
EXTT9=
EXTT10=
EXTT11=
EXTT12=
EXTT13=
EXTT14=
EXTT15=
EXTT16=
EXTT17=
EXTT18=
EXTT19=
EXTT20=
EXTT21=
EXTT22=
PLAYORDER=
